
        <svg xmlns="http://www.w3.org/2000/svg" xmlns:xlink="http://www.w3.org/1999/xlink" version="1.1" width="3206.896551724138" height="2240.335279827399" viewBox="0 0 3206.896551724138 2240.335279827399">
			
			<g transform="scale(10.344827586206897) translate(10, 10)">
				<defs id="SvgjsDefs1420"/><g id="SvgjsG1421" featureKey="9id2mP-0" transform="matrix(1.6025641025641026,0,0,1.6025641025641026,65.37179487179488,-24.83974358974359)" fill="#000"><path xmlns="http://www.w3.org/2000/svg" d="M39,47h22c0.829,0,1.5-0.672,1.5-1.5S61.829,44,61,44H39c-0.829,0-1.5,0.672-1.5,1.5S38.171,47,39,47"/><path xmlns="http://www.w3.org/2000/svg" d="M39,37h22c0.829,0,1.5-0.672,1.5-1.5S61.829,34,61,34H39c-0.829,0-1.5,0.672-1.5,1.5S38.171,37,39,37"/><path xmlns="http://www.w3.org/2000/svg" d="M58,27h8c0.829,0,1.5-0.672,1.5-1.5S66.829,24,66,24h-8c-0.829,0-1.5,0.672-1.5,1.5S57.171,27,58,27"/><path xmlns="http://www.w3.org/2000/svg" d="M76,35.833V15.5H24v20.333L11,40.5v44h78v-44L76,35.833z M81.753,47.797L54.212,63.788  c-1.261,0.725-2.739,1.026-4.212,1.031c-1.473-0.005-2.951-0.307-4.212-1.031L18.247,47.797h0c-0.717-0.416-0.96-1.334-0.544-2.05  c0.416-0.717,1.334-0.96,2.05-0.544L27,49.411V18.5h46v30.911l7.247-4.208c0.716-0.416,1.634-0.173,2.05,0.544  C82.713,46.463,82.47,47.381,81.753,47.797z"/></g><g id="SvgjsG1422" featureKey="zfl5BF-0" transform="matrix(3.418199110299611,0,0,3.418199110299611,-4.990570831431381,106.38896705781254)" fill="#000"><path d="M3.46 17.98 l5.42 0 l0 2 l-7.42 0 l0 -12.78 l6.96 0 l0 2 l-4.96 0 l0 2.96 l4.6 0 l0 2 l-4.6 0 l0 3.82 z M19.6 7.220000000000001 l2.02 0 c0.14 1.62 -0.06 3.26 -0.6 4.94 c-0.62 1.9 -1.56 3.56 -2.38 5 c-0.64 1.14 -1.16 2.08 -1.42 2.84 l-2.38 0 c-0.26 -0.76 -0.78 -1.7 -1.42 -2.84 c-0.84 -1.44 -1.78 -3.1 -2.38 -5 c-0.54 -1.68 -0.74 -3.32 -0.6 -4.94 l2 0 c-0.36 3.56 1.26 6.42 2.72 8.96 c0.3 0.54 0.6 1.06 0.86 1.58 c0.28 -0.52 0.58 -1.04 0.88 -1.58 c1.44 -2.54 3.06 -5.4 2.7 -8.96 z M25.86 17.98 l5.42 0 l0 2 l-7.42 0 l0 -12.78 l6.96 0 l0 2 l-4.96 0 l0 2.96 l4.6 0 l0 2 l-4.6 0 l0 3.82 z M41.08 7.199999999999999 l2 0 l0 12.8 l-2.24 0 l-5.48 -9.26 l0 9.26 l-2 0 l0 -12.8 l1.1 0 l0.02 0 l1.12 0 l5.48 9.28 l0 -9.28 z M53.26 7.199999999999999 l0 2 l-3.12 0 l0 10.8 l-2 0 l0 -10.8 l-3.1 0 l0 -2 l8.22 0 z M59.85999999999999 20.44 c-1.32 0 -2.56 -0.5 -3.46 -1.4 c-0.86 -0.84 -1.34 -1.96 -1.34 -3.08 l0 -8.76 l2 0 l0 8.76 c0 1.2 1.08 2.48 2.8 2.48 c1.74 0 2.8 -1.28 2.8 -2.48 l0 -8.76 l2 0 l0 8.76 c0 1.12 -0.48 2.24 -1.32 3.08 c-0.9 0.9 -2.14 1.4 -3.48 1.4 z M74.66 20 c-0.08 -1.8 -1.22 -2.92 -2.86 -4.28 l-2.76 0 l0 4.28 l-2 0 l0 -12.78 l1.38 0 l0.62 0 l3.48 0 c0.56 0 1.08 0.1 1.6 0.28 c0.5 0.2 0.98 0.5 1.36 0.86 c0.86 0.8 1.34 1.9 1.34 3.1 c0 1.22 -0.48 2.32 -1.34 3.1 c-0.32 0.32 -0.7 0.56 -1.1 0.76 c0.34 0.34 0.66 0.68 0.96 1.08 c0.84 1.08 1.26 2.24 1.32 3.52 l0 0.08 l-2 0 l0 0 z M69.03999999999999 13.719999999999999 l3.48 0 c1.12 0 2.3 -0.8 2.3 -2.26 s-1.18 -2.24 -2.3 -2.24 l-3.48 0 l0 4.5 z M80.87999999999998 17.98 l5.42 0 l0 2 l-7.42 0 l0 -12.78 l6.96 0 l0 2 l-4.96 0 l0 2.96 l4.6 0 l0 2 l-4.6 0 l0 3.82 z"/></g><g id="SvgjsG1423" featureKey="pYXC9J-0" transform="matrix(0.7100633708480556,0,0,0.7100633708480556,63.70768488175068,182.10885271420926)" fill="#000"><path d="M10.96 5.84 l0 1.8 l-7.22 0 l0 4.22 l6.72 0 l0 1.8 l-6.72 0 l0 4.54 l7.58 0 l0 1.8 l-9.5 0 l0 -14.16 l9.14 0 z M19.968 5.84 l7.8 11.64 l0.04 0 l0 -11.64 l1.92 0 l0 14.16 l-2.44 0 l-7.88 -11.64 l-0.04 0 l0 11.64 l-1.92 0 l0 -14.16 l2.52 0 z M43.116 5.84 l0 10.2 c0 1.3333 -0.38666 2.3866 -1.16 3.16 s-1.7667 1.16 -2.98 1.16 c-1.04 0 -1.8933 -0.26666 -2.56 -0.8 s-1.0933 -1.3 -1.28 -2.3 l1.88 -0.42 c0.10666 0.53334 0.32666 0.95334 0.66 1.26 s0.76668 0.46 1.3 0.46 c0.74666 0 1.3033 -0.25 1.67 -0.75 s0.55 -1.29 0.55 -2.37 l0 -9.6 l1.92 0 z M56.324000000000005 5.48 c2.1066 0 3.8634 0.69998 5.27 2.1 s2.11 3.18 2.11 5.34 c0 1.3733 -0.31334 2.63 -0.94 3.77 s-1.51 2.0366 -2.65 2.69 s-2.4034 0.98 -3.79 0.98 c-1.3733 0 -2.6266 -0.32334 -3.76 -0.97 s-2.02 -1.54 -2.66 -2.68 s-0.96 -2.4034 -0.96 -3.79 c0 -2.1066 0.69 -3.8734 2.07 -5.3 s3.15 -2.14 5.31 -2.14 z M50.984 12.92 c0 1.6 0.49998 2.94 1.5 4.02 s2.28 1.62 3.84 1.62 c1.5333 0 2.8066 -0.53334 3.82 -1.6 s1.52 -2.4134 1.52 -4.04 c0 -1.6133 -0.5 -2.9566 -1.5 -4.03 s-2.2866 -1.61 -3.86 -1.61 c-1.52 0 -2.7866 0.53334 -3.8 1.6 s-1.52 2.4134 -1.52 4.04 z M70.31200000000001 5.84 l3.86 6.22 l3.98 -6.22 l2.34 0 l-5.36 8.12 l0 6.04 l-1.92 0 l0 -6.04 l-5.36 -8.12 l2.46 0 z M94.92800000000001 5.84 l3.86 6.22 l3.98 -6.22 l2.34 0 l-5.36 8.12 l0 6.04 l-1.92 0 l0 -6.04 l-5.36 -8.12 l2.46 0 z M116.636 5.48 c2.1066 0 3.8634 0.69998 5.27 2.1 s2.11 3.18 2.11 5.34 c0 1.3733 -0.31334 2.63 -0.94 3.77 s-1.51 2.0366 -2.65 2.69 s-2.4034 0.98 -3.79 0.98 c-1.3733 0 -2.6266 -0.32334 -3.76 -0.97 s-2.02 -1.54 -2.66 -2.68 s-0.96 -2.4034 -0.96 -3.79 c0 -2.1066 0.69 -3.8734 2.07 -5.3 s3.15 -2.14 5.31 -2.14 z M111.296 12.92 c0 1.6 0.49998 2.94 1.5 4.02 s2.28 1.62 3.84 1.62 c1.5333 0 2.8066 -0.53334 3.82 -1.6 s1.52 -2.4134 1.52 -4.04 c0 -1.6133 -0.5 -2.9566 -1.5 -4.03 s-2.2866 -1.61 -3.86 -1.61 c-1.52 0 -2.7866 0.53334 -3.8 1.6 s-1.52 2.4134 -1.52 4.04 z M131.844 5.84 l0 8.74 c0 1.16 0.32334 2.1134 0.97 2.86 s1.51 1.12 2.59 1.12 s1.9433 -0.37334 2.59 -1.12 s0.97 -1.7 0.97 -2.86 l0 -8.74 l1.92 0 l0 9.06 c0 0.97334 -0.23 1.8833 -0.69 2.73 s-1.1133 1.5133 -1.96 2 s-1.79 0.73 -2.83 0.73 c-1.6 0 -2.9134 -0.52334 -3.94 -1.57 s-1.54 -2.3434 -1.54 -3.89 l0 -9.06 l1.92 0 z M152.752 5.84 c1.3867 0 2.4734 0.34666 3.26 1.04 s1.18 1.6667 1.18 2.92 c0 0.94666 -0.32334 1.7733 -0.97 2.48 s-1.4767 1.1267 -2.49 1.26 l-0.02 0 l4.02 6.46 l-2.4 0 l-3.6 -6.24 l-2.14 0 l0 6.24 l-1.92 0 l0 -14.16 l5.08 0 z M152.192 12.08 c1 0 1.7433 -0.18336 2.23 -0.55002 s0.73 -0.94332 0.73 -1.73 c0 -1.52 -0.98666 -2.28 -2.96 -2.28 l-2.6 0 l0 4.56 l2.6 0 z M181.708 5.84 l0 1.8 l-4.56 0 l0 12.36 l-1.92 0 l0 -12.36 l-4.56 0 l0 -1.8 l11.04 0 z M189.07600000000002 5.84 l0 14.16 l-1.92 0 l0 -14.16 l1.92 0 z M198.844 5.84 l4.5 10.72 l0.08 0 l4.46 -10.72 l2.86 0 l0 14.16 l-1.92 0 l0 -11.64 l-0.04 0 l-4.78 11.64 l-1.28 0 l-4.78 -11.64 l-0.04 0 l0 11.64 l-1.92 0 l0 -14.16 l2.86 0 z M226.792 5.84 l0 1.8 l-7.22 0 l0 4.22 l6.72 0 l0 1.8 l-6.72 0 l0 4.54 l7.58 0 l0 1.8 l-9.5 0 l0 -14.16 l9.14 0 z"/></g>
			</g>
		</svg>
	